<svg xmlns="http://www.w3.org/2000/svg" xmlns:xlink="http://www.w3.org/1999/xlink" width="518" zoomAndPan="magnify" viewBox="0 0 388.5 213" height="284" preserveAspectRatio="xMidYMid meet" version="1.0"><defs><g/><clipPath id="7a7f2fe5c0"><path d="M 0 0.136719 L 388 0.136719 L 388 212.863281 L 0 212.863281 Z M 0 0.136719 " clip-rule="nonzero"/></clipPath><clipPath id="83ee948e20"><path d="M 36 25.648438 L 350 25.648438 L 350 182 L 36 182 Z M 36 25.648438 " clip-rule="nonzero"/></clipPath><clipPath id="9158ae149e"><path d="M 349 119 L 387.25 119 L 387.25 132 L 349 132 Z M 349 119 " clip-rule="nonzero"/></clipPath><clipPath id="65c4f12ca1"><path d="M 74 151 L 136 151 L 136 212.160156 L 74 212.160156 Z M 74 151 " clip-rule="nonzero"/></clipPath><clipPath id="0da4a4cad8"><path d="M 255 151 L 316 151 L 316 212.160156 L 255 212.160156 Z M 255 151 " clip-rule="nonzero"/></clipPath></defs><g clip-path="url(#7a7f2fe5c0)"><path fill="#ffffff" d="M 0 0.136719 L 388 0.136719 L 388 212.863281 L 0 212.863281 Z M 0 0.136719 " fill-opacity="1" fill-rule="nonzero"/></g><g clip-path="url(#83ee948e20)"><path fill="#00adef" d="M 321.511719 79.160156 C 321.511719 94.996094 308.691406 107.824219 292.875 107.824219 L 92.410156 107.824219 C 76.582031 107.824219 63.773438 94.996094 63.773438 79.160156 L 63.773438 -4.394531 C 63.773438 -20.230469 76.582031 -33.0625 92.410156 -33.0625 L 292.875 -33.0625 C 308.691406 -33.0625 321.511719 -20.230469 321.511719 -4.394531 Z M 314.265625 -57.753906 L 71 -57.753906 C 51.808594 -57.753906 36.261719 -42.195312 36.261719 -22.984375 L 36.261719 147.019531 C 36.261719 163.789062 48.105469 177.765625 63.871094 181.066406 C 63.835938 180.347656 63.773438 179.625 63.773438 178.902344 C 63.773438 155.960938 82.351562 137.359375 105.28125 137.359375 C 128.195312 137.359375 146.785156 155.960938 146.785156 178.902344 C 146.785156 179.882812 146.714844 180.847656 146.640625 181.800781 L 244.132812 181.800781 C 244.085938 180.847656 243.988281 179.882812 243.988281 178.902344 C 243.988281 155.960938 262.578125 137.359375 285.503906 137.359375 C 308.433594 137.359375 327.011719 155.960938 327.011719 178.902344 L 327 179.355469 C 339.894531 174.269531 349.023438 161.734375 349.023438 147.019531 L 349.023438 -22.984375 C 349.023438 -42.195312 333.464844 -57.753906 314.265625 -57.753906 " fill-opacity="1" fill-rule="nonzero"/></g><g clip-path="url(#9158ae149e)"><path fill="#ed1c24" d="M 399.21875 131.316406 L 349.023438 131.316406 L 349.023438 119.722656 L 399.21875 119.722656 L 399.21875 131.316406 " fill-opacity="1" fill-rule="nonzero"/></g><path fill="#ed1c24" d="M 36.261719 131.316406 L -13.933594 131.316406 L -13.933594 119.722656 L 36.261719 119.722656 L 36.261719 131.316406 " fill-opacity="1" fill-rule="nonzero"/><g clip-path="url(#65c4f12ca1)"><path fill="#f68712" d="M 105.230469 195.988281 C 97.398438 195.988281 91.054688 189.628906 91.054688 181.800781 C 91.054688 173.960938 97.398438 167.617188 105.230469 167.617188 C 113.066406 167.617188 119.410156 173.960938 119.410156 181.800781 C 119.410156 189.628906 113.066406 195.988281 105.230469 195.988281 Z M 105.230469 151.351562 C 88.425781 151.351562 74.785156 164.972656 74.785156 181.800781 C 74.785156 198.617188 88.425781 212.253906 105.230469 212.253906 C 122.035156 212.253906 135.664062 198.617188 135.664062 181.800781 C 135.664062 164.972656 122.035156 151.351562 105.230469 151.351562 " fill-opacity="1" fill-rule="nonzero"/></g><g clip-path="url(#0da4a4cad8)"><path fill="#f68712" d="M 284.539062 195.988281 C 276.707031 195.988281 270.363281 189.628906 270.363281 181.800781 C 270.363281 173.960938 276.707031 167.617188 284.539062 167.617188 C 292.363281 167.617188 298.71875 173.960938 298.71875 181.800781 C 298.71875 189.628906 292.363281 195.988281 284.539062 195.988281 Z M 285.503906 151.351562 C 268.699219 151.351562 255.074219 164.972656 255.074219 181.800781 C 255.074219 198.617188 268.699219 212.253906 285.503906 212.253906 C 302.324219 212.253906 315.9375 198.617188 315.9375 181.800781 C 315.9375 164.972656 302.324219 151.351562 285.503906 151.351562 " fill-opacity="1" fill-rule="nonzero"/></g><path fill="#f14624" d="M 282.78125 182.316406 C 282.78125 184.835938 280.726562 186.902344 278.195312 186.902344 L 107.089844 186.902344 C 104.558594 186.902344 102.507812 184.835938 102.507812 182.316406 C 102.507812 179.773438 104.558594 177.730469 107.089844 177.730469 L 278.195312 177.730469 C 280.726562 177.730469 282.78125 179.773438 282.78125 182.316406 " fill-opacity="1" fill-rule="nonzero"/><g fill="#000000" fill-opacity="1"><g transform="translate(63.492487, 102.995823)"><g><path d="M 54.03125 -61.78125 C 54.695312 -60.988281 55.03125 -60.171875 55.03125 -59.328125 C 55.03125 -58.960938 55.015625 -58.582031 54.984375 -58.1875 C 54.953125 -57.789062 54.90625 -57.4375 54.84375 -57.125 C 54.664062 -56.457031 54.273438 -55.820312 53.671875 -55.21875 C 53.179688 -54.851562 52.507812 -54.578125 51.65625 -54.390625 C 51.226562 -54.273438 50.800781 -54.1875 50.375 -54.125 C 49.945312 -54.0625 49.492188 -53.96875 49.015625 -53.84375 C 48.585938 -53.78125 48.160156 -53.75 47.734375 -53.75 C 47.304688 -53.75 46.847656 -53.75 46.359375 -53.75 L 41.703125 -53.75 C 40.609375 -53.695312 39.53125 -53.671875 38.46875 -53.671875 C 37.40625 -53.671875 36.351562 -53.671875 35.3125 -53.671875 C 35.375 -51.773438 35.40625 -49.75 35.40625 -47.59375 C 35.40625 -45.4375 35.390625 -42.925781 35.359375 -40.0625 C 35.328125 -37.207031 35.296875 -33.890625 35.265625 -30.109375 C 35.242188 -26.335938 35.234375 -21.957031 35.234375 -16.96875 L 35.234375 -10.046875 C 35.234375 -9.429688 35.257812 -8.972656 35.3125 -8.671875 C 35.3125 -8.429688 35.3125 -8.203125 35.3125 -7.984375 C 35.3125 -7.773438 35.285156 -7.515625 35.234375 -7.203125 C 35.109375 -6.660156 35.015625 -6.023438 34.953125 -5.296875 C 34.953125 -4.992188 34.921875 -4.703125 34.859375 -4.421875 C 34.796875 -4.148438 34.707031 -3.863281 34.59375 -3.5625 C 34.34375 -3.3125 34.21875 -3.128906 34.21875 -3.015625 L 33.953125 -2.46875 C 33.648438 -1.851562 33.070312 -1.273438 32.21875 -0.734375 C 30.875 -0.0546875 29.382812 0.09375 27.75 -0.28125 C 26.707031 -0.394531 25.914062 -0.664062 25.375 -1.09375 C 24.820312 -1.644531 24.425781 -2.191406 24.1875 -2.734375 C 23.820312 -3.398438 23.609375 -4.039062 23.546875 -4.65625 C 23.359375 -5.195312 23.265625 -5.773438 23.265625 -6.390625 L 23.265625 -53.296875 C 22.898438 -53.296875 22.140625 -53.296875 20.984375 -53.296875 C 19.828125 -53.296875 18.59375 -53.3125 17.28125 -53.34375 C 15.976562 -53.375 14.75 -53.421875 13.59375 -53.484375 C 12.4375 -53.546875 11.644531 -53.609375 11.21875 -53.671875 C 10.851562 -53.722656 10.289062 -53.8125 9.53125 -53.9375 C 8.769531 -54.0625 8.148438 -54.179688 7.671875 -54.296875 C 6.390625 -54.660156 5.382812 -55.238281 4.65625 -56.03125 C 3.988281 -56.820312 3.65625 -57.707031 3.65625 -58.6875 C 3.65625 -59.050781 3.65625 -59.414062 3.65625 -59.78125 C 3.65625 -60.144531 3.710938 -60.476562 3.828125 -60.78125 C 4.015625 -61.507812 4.503906 -62.117188 5.296875 -62.609375 C 5.535156 -62.785156 5.910156 -63.007812 6.421875 -63.28125 C 6.941406 -63.5625 7.445312 -63.765625 7.9375 -63.890625 C 8.664062 -64.128906 9.578125 -64.3125 10.671875 -64.4375 C 11.160156 -64.5 11.648438 -64.53125 12.140625 -64.53125 C 12.628906 -64.53125 13.144531 -64.53125 13.6875 -64.53125 C 15.820312 -64.53125 17.847656 -64.53125 19.765625 -64.53125 C 21.679688 -64.53125 23.703125 -64.554688 25.828125 -64.609375 C 29.359375 -64.671875 32.867188 -64.6875 36.359375 -64.65625 C 39.859375 -64.625 43.34375 -64.550781 46.8125 -64.4375 C 47.601562 -64.375 48.363281 -64.28125 49.09375 -64.15625 C 49.832031 -64.039062 50.566406 -63.828125 51.296875 -63.515625 C 51.835938 -63.335938 52.351562 -63.109375 52.84375 -62.828125 C 53.332031 -62.554688 53.726562 -62.207031 54.03125 -61.78125 Z M 54.03125 -61.78125 "/></g></g></g><g fill="#000000" fill-opacity="1"><g transform="translate(122.172638, 102.995823)"><g><path d="M 15.421875 -41.25 C 17.429688 -42.226562 19.53125 -42.925781 21.71875 -43.34375 C 23.90625 -43.769531 26.078125 -43.863281 28.234375 -43.625 C 30.398438 -43.382812 32.5 -42.804688 34.53125 -41.890625 C 36.570312 -40.972656 38.445312 -39.695312 40.15625 -38.0625 C 41.550781 -36.65625 42.765625 -34.960938 43.796875 -32.984375 C 44.835938 -31.015625 45.601562 -29.085938 46.09375 -27.203125 C 47.125 -23.847656 47.273438 -20.46875 46.546875 -17.0625 C 45.816406 -13.65625 44.566406 -10.492188 42.796875 -7.578125 C 41.953125 -6.234375 40.90625 -5.03125 39.65625 -3.96875 C 38.40625 -2.90625 37.082031 -2.039062 35.6875 -1.375 C 33.863281 -0.519531 31.882812 0.0703125 29.75 0.40625 C 27.625 0.738281 25.554688 0.816406 23.546875 0.640625 C 19.898438 0.453125 16.691406 -0.457031 13.921875 -2.09375 C 11.148438 -3.738281 8.925781 -5.835938 7.25 -8.390625 C 5.582031 -10.953125 4.488281 -13.859375 3.96875 -17.109375 C 3.445312 -20.367188 3.644531 -23.703125 4.5625 -27.109375 C 5.539062 -30.753906 6.957031 -33.71875 8.8125 -36 C 10.664062 -38.28125 12.867188 -40.03125 15.421875 -41.25 Z M 18.15625 -29.015625 C 17.25 -28.171875 16.550781 -27.109375 16.0625 -25.828125 C 15.570312 -24.546875 15.265625 -23.21875 15.140625 -21.84375 C 15.023438 -20.476562 15.132812 -19.113281 15.46875 -17.75 C 15.800781 -16.382812 16.332031 -15.15625 17.0625 -14.0625 C 17.675781 -13.144531 18.769531 -12.378906 20.34375 -11.765625 C 21.925781 -11.160156 23.570312 -10.796875 25.28125 -10.671875 C 27.226562 -10.554688 28.929688 -11.09375 30.390625 -12.28125 C 31.847656 -13.46875 32.957031 -14.941406 33.71875 -16.703125 C 34.476562 -18.460938 34.828125 -20.375 34.765625 -22.4375 C 34.710938 -24.507812 34.164062 -26.398438 33.125 -28.109375 C 32.394531 -29.328125 31.375 -30.222656 30.0625 -30.796875 C 28.757812 -31.378906 27.394531 -31.6875 25.96875 -31.71875 C 24.539062 -31.75 23.125 -31.535156 21.71875 -31.078125 C 20.320312 -30.617188 19.132812 -29.929688 18.15625 -29.015625 Z M 18.15625 -29.015625 "/></g></g></g><g fill="#000000" fill-opacity="1"><g transform="translate(172.821902, 102.995823)"><g><path d="M 29.203125 -41.0625 C 30.972656 -40.332031 32.585938 -39.285156 34.046875 -37.921875 C 35.503906 -36.554688 36.765625 -34.988281 37.828125 -33.21875 C 38.890625 -31.457031 39.707031 -29.554688 40.28125 -27.515625 C 40.863281 -25.472656 41.15625 -23.421875 41.15625 -21.359375 C 41.21875 -18.253906 40.503906 -15.332031 39.015625 -12.59375 C 37.523438 -9.851562 35.109375 -7.753906 31.765625 -6.296875 C 29.203125 -5.265625 26.566406 -4.488281 23.859375 -3.96875 C 21.148438 -3.445312 18.335938 -3.097656 15.421875 -2.921875 L 15.421875 13.78125 C 15.421875 14.144531 15.375 14.476562 15.28125 14.78125 C 15.195312 15.082031 15.15625 15.390625 15.15625 15.703125 C 15.03125 16.304688 14.890625 16.851562 14.734375 17.34375 C 14.585938 17.832031 14.390625 18.347656 14.140625 18.890625 C 13.898438 19.253906 13.65625 19.585938 13.40625 19.890625 C 13.164062 20.203125 12.894531 20.507812 12.59375 20.8125 C 11.132812 21.539062 9.613281 21.691406 8.03125 21.265625 C 7.0625 21.203125 6.269531 20.898438 5.65625 20.359375 C 5.113281 19.804688 4.71875 19.226562 4.46875 18.625 C 4.226562 18.007812 4.015625 17.304688 3.828125 16.515625 C 3.765625 16.210938 3.71875 15.921875 3.6875 15.640625 C 3.664062 15.367188 3.65625 15.082031 3.65625 14.78125 L 3.65625 -36.046875 C 3.65625 -36.410156 3.664062 -36.789062 3.6875 -37.1875 C 3.71875 -37.582031 3.765625 -37.992188 3.828125 -38.421875 C 3.890625 -39.148438 4.070312 -39.878906 4.375 -40.609375 C 4.925781 -42.128906 6.050781 -43.160156 7.75 -43.703125 C 9.457031 -44.253906 11.375 -44.503906 13.5 -44.453125 C 14.96875 -44.390625 16.476562 -44.234375 18.03125 -43.984375 C 19.582031 -43.742188 21.070312 -43.457031 22.5 -43.125 C 23.925781 -42.789062 25.21875 -42.441406 26.375 -42.078125 C 27.53125 -41.710938 28.472656 -41.375 29.203125 -41.0625 Z M 29.390625 -21.359375 C 29.628906 -23.054688 29.429688 -24.5 28.796875 -25.6875 C 28.160156 -26.875 27.265625 -27.847656 26.109375 -28.609375 C 24.953125 -29.367188 23.625 -29.960938 22.125 -30.390625 C 20.632812 -30.816406 19.160156 -31.117188 17.703125 -31.296875 C 17.523438 -31.359375 17.238281 -31.390625 16.84375 -31.390625 C 16.445312 -31.390625 16.003906 -31.390625 15.515625 -31.390625 C 15.515625 -29.441406 15.53125 -27.570312 15.5625 -25.78125 C 15.59375 -23.988281 15.578125 -22.054688 15.515625 -19.984375 L 15.515625 -13.875 C 16.910156 -13.9375 18.382812 -14.085938 19.9375 -14.328125 C 21.488281 -14.566406 22.929688 -14.960938 24.265625 -15.515625 C 25.609375 -16.066406 26.75 -16.796875 27.6875 -17.703125 C 28.632812 -18.617188 29.203125 -19.835938 29.390625 -21.359375 Z M 29.390625 -21.359375 "/></g></g></g><g fill="#000000" fill-opacity="1"><g transform="translate(217.721795, 102.995823)"><g><path d="M 15.15625 -34.59375 C 15.15625 -32.882812 15.164062 -30.960938 15.1875 -28.828125 C 15.21875 -26.703125 15.234375 -24.5 15.234375 -22.21875 C 15.234375 -19.9375 15.234375 -17.6875 15.234375 -15.46875 C 15.234375 -13.25 15.207031 -11.195312 15.15625 -9.3125 C 15.09375 -8.394531 15 -7.40625 14.875 -6.34375 C 14.75 -5.28125 14.503906 -4.289062 14.140625 -3.375 C 13.773438 -2.46875 13.210938 -1.722656 12.453125 -1.140625 C 11.691406 -0.566406 10.675781 -0.304688 9.40625 -0.359375 C 7.519531 -0.484375 6.164062 -1.304688 5.34375 -2.828125 C 4.519531 -4.347656 4.046875 -6.476562 3.921875 -9.21875 C 3.921875 -10.613281 3.90625 -12.222656 3.875 -14.046875 C 3.84375 -15.878906 3.8125 -17.738281 3.78125 -19.625 C 3.75 -21.507812 3.734375 -23.347656 3.734375 -25.140625 C 3.734375 -26.941406 3.734375 -28.570312 3.734375 -30.03125 C 3.734375 -30.875 3.71875 -31.90625 3.6875 -33.125 C 3.664062 -34.34375 3.679688 -35.585938 3.734375 -36.859375 C 3.796875 -38.140625 3.945312 -39.375 4.1875 -40.5625 C 4.4375 -41.75 4.835938 -42.738281 5.390625 -43.53125 C 5.816406 -44.019531 6.421875 -44.398438 7.203125 -44.671875 C 7.992188 -44.941406 8.832031 -45.078125 9.71875 -45.078125 C 10.601562 -45.078125 11.453125 -44.925781 12.265625 -44.625 C 13.085938 -44.320312 13.6875 -43.894531 14.0625 -43.34375 C 14.300781 -42.976562 14.476562 -42.460938 14.59375 -41.796875 C 14.71875 -41.128906 14.828125 -40.382812 14.921875 -39.5625 C 15.015625 -38.738281 15.078125 -37.882812 15.109375 -37 C 15.140625 -36.125 15.15625 -35.320312 15.15625 -34.59375 Z M 11.6875 -53.03125 C 9.800781 -52.539062 8.234375 -52.734375 6.984375 -53.609375 C 5.734375 -54.492188 4.957031 -55.820312 4.65625 -57.59375 C 4.414062 -58.863281 4.503906 -59.984375 4.921875 -60.953125 C 5.347656 -61.929688 5.988281 -62.679688 6.84375 -63.203125 C 7.695312 -63.722656 8.671875 -63.953125 9.765625 -63.890625 C 10.859375 -63.828125 11.953125 -63.398438 13.046875 -62.609375 C 14.085938 -61.878906 14.832031 -61.023438 15.28125 -60.046875 C 15.738281 -59.078125 15.890625 -58.132812 15.734375 -57.21875 C 15.585938 -56.3125 15.175781 -55.476562 14.5 -54.71875 C 13.832031 -53.957031 12.894531 -53.394531 11.6875 -53.03125 Z M 11.6875 -53.03125 "/></g></g></g><g fill="#000000" fill-opacity="1"><g transform="translate(237.251424, 102.995823)"><g><path d="M 37.59375 -35.140625 C 38.082031 -34.285156 38.34375 -33.367188 38.375 -32.390625 C 38.40625 -31.421875 38.175781 -30.507812 37.6875 -29.65625 C 37.144531 -28.5625 36.367188 -27.816406 35.359375 -27.421875 C 34.359375 -27.023438 33.25 -26.976562 32.03125 -27.28125 C 31.488281 -27.40625 31.003906 -27.617188 30.578125 -27.921875 C 30.148438 -28.234375 29.707031 -28.554688 29.25 -28.890625 C 28.789062 -29.222656 28.269531 -29.539062 27.6875 -29.84375 C 27.113281 -30.144531 26.375 -30.359375 25.46875 -30.484375 C 24.550781 -30.609375 23.5625 -30.609375 22.5 -30.484375 C 21.4375 -30.359375 20.476562 -30.113281 19.625 -29.75 C 18.28125 -29.082031 17.210938 -28.0625 16.421875 -26.6875 C 15.628906 -25.320312 15.113281 -23.863281 14.875 -22.3125 C 14.632812 -20.757812 14.679688 -19.191406 15.015625 -17.609375 C 15.347656 -16.023438 16 -14.6875 16.96875 -13.59375 C 17.707031 -12.75 18.664062 -12.050781 19.84375 -11.5 C 21.03125 -10.945312 22.171875 -10.613281 23.265625 -10.5 C 24.304688 -10.375 25.34375 -10.382812 26.375 -10.53125 C 27.40625 -10.6875 28.410156 -10.914062 29.390625 -11.21875 C 30.117188 -11.53125 30.9375 -11.941406 31.84375 -12.453125 C 32.757812 -12.972656 33.644531 -13.296875 34.5 -13.421875 C 35.59375 -13.421875 36.441406 -13.128906 37.046875 -12.546875 C 37.660156 -11.972656 38.085938 -11.273438 38.328125 -10.453125 C 38.578125 -9.628906 38.625 -8.757812 38.46875 -7.84375 C 38.3125 -6.9375 37.960938 -6.144531 37.421875 -5.46875 C 36.691406 -4.5625 35.65625 -3.695312 34.3125 -2.875 C 32.976562 -2.050781 31.703125 -1.457031 30.484375 -1.09375 C 29.023438 -0.601562 27.394531 -0.328125 25.59375 -0.265625 C 23.800781 -0.210938 22.113281 -0.273438 20.53125 -0.453125 C 19.800781 -0.578125 19.039062 -0.726562 18.25 -0.90625 C 17.457031 -1.09375 16.695312 -1.304688 15.96875 -1.546875 C 13.289062 -2.523438 11.054688 -3.910156 9.265625 -5.703125 C 7.472656 -7.492188 6.101562 -9.515625 5.15625 -11.765625 C 4.207031 -14.023438 3.671875 -16.429688 3.546875 -18.984375 C 3.429688 -21.535156 3.738281 -24.0625 4.46875 -26.5625 C 5.132812 -28.9375 5.96875 -30.941406 6.96875 -32.578125 C 7.976562 -34.222656 9.164062 -35.578125 10.53125 -36.640625 C 11.90625 -37.703125 13.441406 -38.550781 15.140625 -39.1875 C 16.847656 -39.832031 18.738281 -40.398438 20.8125 -40.890625 C 22.9375 -41.316406 25.1875 -41.316406 27.5625 -40.890625 C 29.9375 -40.460938 32.066406 -39.671875 33.953125 -38.515625 C 35.410156 -37.722656 36.625 -36.597656 37.59375 -35.140625 Z M 37.59375 -35.140625 "/></g></g></g><g fill="#000000" fill-opacity="1"><g transform="translate(279.41353, 102.995823)"><g><path d="M 25.46875 -16.0625 C 24.3125 -16.789062 23.015625 -17.367188 21.578125 -17.796875 C 20.148438 -18.222656 18.691406 -18.617188 17.203125 -18.984375 C 15.710938 -19.347656 14.265625 -19.757812 12.859375 -20.21875 C 11.460938 -20.675781 10.1875 -21.328125 9.03125 -22.171875 C 6.539062 -24.054688 5.097656 -26.382812 4.703125 -29.15625 C 4.304688 -31.925781 4.898438 -34.710938 6.484375 -37.515625 C 7.328125 -38.972656 8.445312 -40.171875 9.84375 -41.109375 C 11.25 -42.054688 12.785156 -42.785156 14.453125 -43.296875 C 16.128906 -43.816406 17.847656 -44.109375 19.609375 -44.171875 C 21.378906 -44.234375 23.054688 -44.144531 24.640625 -43.90625 C 25.671875 -43.71875 26.765625 -43.457031 27.921875 -43.125 C 29.078125 -42.789062 30.15625 -42.347656 31.15625 -41.796875 C 32.164062 -41.253906 33.082031 -40.570312 33.90625 -39.75 C 34.726562 -38.925781 35.320312 -37.90625 35.6875 -36.6875 C 35.925781 -35.894531 35.96875 -35.132812 35.8125 -34.40625 C 35.664062 -33.675781 35.363281 -33.066406 34.90625 -32.578125 C 34.445312 -32.097656 33.867188 -31.734375 33.171875 -31.484375 C 32.472656 -31.242188 31.726562 -31.179688 30.9375 -31.296875 C 30.019531 -31.484375 29.164062 -31.757812 28.375 -32.125 C 27.59375 -32.488281 26.804688 -32.882812 26.015625 -33.3125 C 25.222656 -33.738281 24.414062 -34.101562 23.59375 -34.40625 C 22.769531 -34.707031 21.898438 -34.859375 20.984375 -34.859375 C 19.585938 -34.921875 18.429688 -34.675781 17.515625 -34.125 C 16.609375 -33.582031 15.988281 -32.914062 15.65625 -32.125 C 15.320312 -31.332031 15.351562 -30.476562 15.75 -29.5625 C 16.144531 -28.65625 16.976562 -27.867188 18.25 -27.203125 C 19.40625 -26.585938 20.679688 -26.097656 22.078125 -25.734375 C 23.484375 -25.367188 24.867188 -25.003906 26.234375 -24.640625 C 27.609375 -24.273438 28.945312 -23.847656 30.25 -23.359375 C 31.5625 -22.878906 32.734375 -22.210938 33.765625 -21.359375 C 35.773438 -19.710938 37.007812 -17.796875 37.46875 -15.609375 C 37.925781 -13.421875 37.785156 -11.257812 37.046875 -9.125 C 36.316406 -7 35.054688 -5.113281 33.265625 -3.46875 C 31.472656 -1.820312 29.359375 -0.726562 26.921875 -0.1875 C 25.160156 0.175781 23.257812 0.359375 21.21875 0.359375 C 19.175781 0.359375 17.164062 0.148438 15.1875 -0.265625 C 13.21875 -0.691406 11.332031 -1.363281 9.53125 -2.28125 C 7.738281 -3.195312 6.234375 -4.351562 5.015625 -5.75 C 4.160156 -6.71875 3.71875 -7.828125 3.6875 -9.078125 C 3.664062 -10.328125 3.910156 -11.421875 4.421875 -12.359375 C 4.941406 -13.304688 5.6875 -13.960938 6.65625 -14.328125 C 7.632812 -14.691406 8.734375 -14.476562 9.953125 -13.6875 C 10.921875 -13.019531 12.070312 -12.363281 13.40625 -11.71875 C 14.75 -11.082031 16.085938 -10.582031 17.421875 -10.21875 C 18.765625 -9.851562 20.0625 -9.671875 21.3125 -9.671875 C 22.5625 -9.671875 23.640625 -9.945312 24.546875 -10.5 C 25.890625 -11.34375 26.585938 -12.328125 26.640625 -13.453125 C 26.703125 -14.585938 26.3125 -15.457031 25.46875 -16.0625 Z M 25.46875 -16.0625 "/></g></g></g></svg>